<svg xmlns="http://www.w3.org/2000/svg" viewBox="311.787 344.453 90.517 100"><path fill="#88dbdf" d="M372.217 395.912c-7.338 0-10.426 5.092-10.491 5.201a.097.097 0 0 0-.006.007v-14.1l.004.003a15.28 15.28 0 0 0 3.696 3.426l.096.062c.183.117.366.23.551.34.07.04.14.081.213.121.133.077.27.15.41.222.1.055.202.107.304.158.087.042.171.085.257.125a13.682 13.682 0 0 0 .693.305c.151.063.303.124.457.18l.211.078c.156.055.312.108.468.158l.183.06c.186.055.372.108.559.157a15.717 15.717 0 0 0 .768.183l.19.037c.156.03.314.058.47.083.083.014.163.028.243.04.167.023.335.044.503.064.093.01.184.02.277.028.17.016.342.028.512.04a18.499 18.499 0 0 0 .595.02 15.076 15.076 0 0 0 10.96-4.404l-2.117-2.116a12.101 12.101 0 0 1-6.106 3.279c-.119.023-.238.042-.356.063-.075.013-.151.028-.227.04a12.1 12.1 0 0 1-1.858.144c-6.055 0-11.056-4.449-11.955-10.251v-3.725c.899-5.804 5.901-10.25 11.955-10.25a12.086 12.086 0 0 1 8.58 3.56l2.119-2.119a15.07 15.07 0 0 0-8.759-4.312 15.056 15.056 0 0 0-10.96 2.874l-.008.007a15.089 15.089 0 0 0-1.69 1.474c-.15.149-.294.3-.435.456l-.05.057c-.138.15-.271.306-.4.462-.019.021-.04.043-.056.065-.099.122-.198.247-.292.372v-.006l-.005.004v-5.973h-3.238v63.683h3.16V409.64c0-.207.023-.523.083-.912.422-2.844 2.64-9.741 10.412-9.741 8.838 0 10.732 8.84 10.732 11.6v15.706h2.999V411.3c0-9.078-6.235-15.389-13.65-15.389z"/><path d="M355.365 362.61v6.185a15.89 15.89 0 0 0-1.081-1.347c-2.612-2.875-5.836-4.459-9.666-4.759a17.063 17.063 0 0 0-1.363-.058c-.463 0-.917.023-1.364.058-3.847.3-7.078 1.894-9.692 4.783-2.64 2.92-3.964 6.364-3.975 10.333v.085c.011 4.005 1.411 7.506 4.203 10.505 2.801 3.008 6.408 4.512 10.828 4.512 4.401 0 8.002-1.504 10.804-4.512a16.917 16.917 0 0 0 1.305-1.608v15.308a15.386 15.386 0 0 0-1.081-1.342c-2.916-3.213-6.591-4.817-11.027-4.817-4.455 0-8.138 1.614-11.056 4.84-2.641 2.92-3.964 6.363-3.975 10.334v.082c.01 4.002 1.411 7.508 4.203 10.505 2.8 3.007 6.408 4.512 10.828 4.512 4.4 0 8-1.505 10.805-4.512a17.184 17.184 0 0 0 1.303-1.61v6.208h3.202v-63.683h-3.201zm-12.008 27.363c-6.696 0-12.123-5.427-12.123-12.123s5.427-12.122 12.123-12.122c6.162 0 11.237 4.6 12.007 10.552v3.141c-.77 5.952-5.845 10.552-12.007 10.552zm.002 33.3c-6.697 0-12.124-5.427-12.124-12.123 0-6.697 5.427-12.122 12.124-12.122 6.162 0 11.235 4.598 12.006 10.552v3.142c-.771 5.951-5.844 10.55-12.006 10.55z" fill="currentColor"/></svg>
